<?xml version="1.0" standalone="no"?>
<!DOCTYPE svg PUBLIC "-//W3C//DTD SVG 20010904//EN"
 "http://www.w3.org/TR/2001/REC-SVG-20010904/DTD/svg10.dtd">
<svg version="1.0" xmlns="http://www.w3.org/2000/svg"
 width="640.000000pt" height="640.000000pt" viewBox="0 0 640.000000 640.000000"
 preserveAspectRatio="xMidYMid meet">
<metadata>
Created by potrace 1.14, written by Peter Selinger 2001-2017
</metadata>
<g transform="translate(0.000000,640.000000) scale(0.100000,-0.100000)"
fill="#000000" stroke="none">
<path d="M3090 5740 c-30 -11 -56 -25 -58 -30 -2 -6 -9 -10 -16 -10 -18 0 -82
-76 -105 -125 -17 -37 -35 -112 -33 -140 1 -5 1 -32 1 -60 0 -27 0 -59 1 -70
0 -11 0 -36 -1 -55 -1 -19 -1 -42 0 -50 0 -8 0 -40 0 -70 -1 -30 -1 -62 0 -70
1 -8 1 -31 0 -50 -2 -53 -2 -54 1 -65 1 -5 2 -41 1 -79 -1 -67 -1 -68 -26 -64
-14 3 -27 2 -30 -2 -2 -4 -25 -4 -49 0 -25 4 -51 3 -58 -1 -6 -4 -16 -5 -21
-2 -12 7 -215 6 -227 -2 -6 -3 -10 -2 -10 2 0 5 -29 6 -65 3 -36 -3 -65 -3
-65 0 0 3 -72 5 -160 5 -88 0 -160 -4 -160 -8 0 -5 -4 -5 -10 -2 -5 3 -33 5
-62 5 -29 0 -62 0 -73 0 -11 0 -36 0 -55 -1 -19 -1 -41 -1 -47 0 -31 3 -41 2
-88 -3 -376 -46 -665 -335 -711 -711 -3 -27 -5 -57 -5 -65 1 -8 1 -31 0 -50 0
-19 0 -44 1 -55 1 -11 1 -27 1 -35 -2 -69 0 -113 4 -121 4 -5 3 -9 -2 -9 -4 0
-7 -71 -5 -157 2 -87 2 -180 1 -208 0 -27 -1 -56 0 -62 2 -20 3 -201 2 -273 0
-8 0 -33 0 -55 0 -22 0 -49 -1 -60 -4 -100 -4 -135 0 -135 3 0 4 -28 2 -62 -1
-35 -2 -106 -1 -158 0 -52 0 -106 -1 -120 -4 -88 -4 -140 1 -140 3 0 3 -20 -1
-45 -4 -25 -4 -48 0 -50 4 -3 4 -22 0 -44 -4 -22 -4 -45 0 -51 4 -7 4 -27 0
-46 -4 -18 -5 -35 -3 -38 3 -3 4 -31 3 -63 -2 -73 -2 -69 -1 -128 1 -27 0 -78
-1 -113 -2 -34 0 -62 3 -62 3 0 3 -20 -1 -45 -4 -25 -4 -48 0 -50 4 -3 4 -22
0 -44 -4 -22 -4 -45 1 -52 4 -7 5 -17 3 -21 -10 -15 -1 -274 11 -323 4 -16 8
-37 10 -45 2 -8 4 -16 5 -17 2 -2 3 -7 4 -11 0 -5 19 -44 40 -86 37 -72 126
-176 196 -230 42 -31 165 -85 232 -101 94 -22 3381 -22 3475 0 131 31 235 91
329 191 100 105 159 237 169 374 2 30 5 57 6 60 1 3 1 9 0 13 -2 13 -2 97 1
165 2 34 0 62 -3 62 -3 0 -3 20 1 45 4 25 4 48 0 50 -4 3 -4 22 0 44 4 22 4
45 0 51 -4 7 -4 27 0 46 4 18 5 35 3 38 -3 3 -4 31 -3 63 2 73 2 69 1 128 -1
28 0 78 1 113 2 34 0 62 -3 62 -3 0 -3 20 1 45 4 25 4 48 0 50 -4 3 -4 22 0
44 4 22 4 45 0 51 -4 7 -4 27 0 46 4 18 5 35 3 38 -3 3 -4 31 -3 63 2 73 2 69
1 128 -1 28 0 78 1 113 2 34 0 62 -3 62 -3 0 -3 20 1 45 4 25 4 48 0 50 -4 3
-4 22 0 44 4 22 4 45 0 51 -4 7 -4 27 0 46 4 18 5 35 3 38 -3 3 -4 31 -3 63 2
73 2 69 1 128 -1 28 0 78 1 113 2 34 0 62 -3 62 -3 0 -3 20 1 45 4 25 4 48 0
50 -4 3 -4 22 0 44 4 22 4 45 -1 52 -4 7 -5 17 -3 21 5 7 5 35 3 111 -1 6 0
68 0 137 0 69 -1 148 -3 175 -4 57 -43 215 -57 230 -5 5 -9 17 -9 27 0 10 -3
18 -8 18 -4 0 -14 15 -21 33 -36 80 -203 267 -240 267 -5 0 -11 4 -13 9 -4 13
-146 85 -193 99 -90 27 -133 34 -219 38 -50 3 -96 6 -103 9 -6 2 -14 1 -17 -2
-6 -6 -196 -6 -203 0 -2 3 -19 1 -37 -3 -19 -4 -39 -4 -46 0 -6 4 -29 4 -51 0
-22 -4 -41 -4 -44 0 -2 4 -25 4 -50 0 -25 -4 -45 -4 -45 -1 0 5 -52 5 -140 1
-24 -2 -177 -1 -269 0 -25 1 -48 3 -53 6 -4 3 -8 2 -8 -3 0 -4 -20 -7 -45 -5
l-44 4 2 69 c1 38 -1 69 -4 69 -3 0 -3 23 1 50 4 28 3 53 0 55 -4 2 -4 21 -1
42 4 21 4 57 0 81 -3 23 -3 42 0 42 6 0 5 127 -3 247 -13 216 -224 356 -426
283z m-685 -2178 c107 -51 191 -148 219 -255 18 -64 14 -192 -7 -238 -8 -19
-18 -41 -21 -49 -31 -79 -159 -184 -250 -207 -48 -12 -165 -10 -213 3 -111 29
-220 127 -263 235 -31 78 -35 220 -8 279 9 19 19 42 22 50 16 41 111 150 131
150 6 0 16 5 23 12 31 31 127 55 213 53 73 -1 96 -6 154 -33z m1905 7 c30 -13
57 -27 58 -31 2 -4 8 -8 14 -8 17 0 77 -62 114 -117 91 -137 79 -339 -29 -467
-43 -52 -125 -107 -189 -128 -72 -23 -191 -18 -268 12 -89 35 -185 131 -220
221 -35 90 -35 219 1 302 46 106 139 191 247 228 71 24 203 18 272 -12z
m-2225 -1649 c36 3 65 3 65 0 0 -4 166 -4 180 1 3 1 8 1 11 1 8 -1 101 -2 119
-1 8 0 34 -1 57 -2 l42 -1 1 -54 c0 -30 1 -62 0 -71 0 -21 1 -93 2 -102 0 -3
0 -25 -1 -47 l-1 -42 -61 -1 c-33 0 -64 -3 -70 -6 -5 -4 -9 -3 -9 2 0 4 -20 8
-45 8 -25 0 -45 -4 -45 -8 0 -5 -4 -6 -9 -3 -5 3 -35 6 -67 6 -94 0 -97 -1
-139 -1 -22 0 -47 0 -55 0 -8 0 -43 1 -77 1 -59 0 -63 1 -62 22 0 13 0 40 0
61 0 20 0 44 0 52 0 8 0 32 0 53 -1 20 0 57 2 82 l2 45 45 5 c25 3 46 3 48 0
1 -3 31 -3 67 0z m961 2 c3 4 9 6 14 3 8 -5 59 -6 130 -4 8 0 40 0 70 0 30 0
63 -1 73 0 9 0 33 0 52 0 19 0 42 0 50 0 8 0 31 -1 50 -2 l35 -1 0 -61 c0 -34
0 -71 0 -82 1 -11 0 -36 0 -56 -1 -19 0 -39 1 -45 1 -5 1 -24 0 -41 l-1 -33
-59 1 c-33 1 -64 -2 -70 -5 -5 -4 -12 -2 -15 2 -3 5 -26 6 -51 2 -25 -4 -47
-4 -50 -1 -2 4 -36 4 -75 1 -39 -3 -73 -3 -75 1 -2 3 -27 3 -55 -1 -27 -4 -50
-4 -50 -1 0 3 -31 5 -69 4 l-69 -2 -4 44 c-2 25 -1 45 3 45 3 0 3 23 -1 50 -4
28 -4 50 -1 50 3 0 5 29 3 64 l-4 65 39 3 c21 2 57 0 81 -3 23 -3 45 -2 48 3z
m959 -2 c36 3 65 3 65 0 0 -4 166 -4 180 1 3 1 8 1 11 1 8 -1 101 -2 119 -1 8
0 34 -1 57 -2 l42 -1 1 -54 c0 -30 1 -62 0 -71 0 -21 1 -93 2 -102 0 -3 0 -25
-1 -47 l-1 -42 -61 -1 c-33 0 -64 -3 -70 -6 -5 -4 -9 -3 -9 2 0 4 -20 8 -45 8
-25 0 -45 -4 -45 -8 0 -5 -4 -6 -9 -3 -5 3 -35 6 -67 6 -94 0 -97 -1 -139 -1
-22 0 -47 0 -55 0 -8 0 -43 1 -77 1 -59 0 -63 1 -62 22 0 13 0 40 0 61 0 20 0
44 0 52 0 8 0 32 0 53 -1 20 0 57 2 82 l2 45 45 5 c25 3 46 3 48 0 1 -3 31 -3
67 0z"/>
<path d="M284 3520 c-3 -2 -17 -6 -32 -8 -91 -12 -199 -108 -232 -207 -20 -61
-21 -76 -18 -766 l3 -704 24 -49 c32 -63 95 -126 156 -155 39 -19 68 -24 132
-25 46 -1 83 -3 83 -6 0 -3 28 -4 62 -2 71 3 153 3 171 -1 7 -1 10 5 8 13 -2
8 -3 20 -3 25 1 20 2 80 1 95 0 8 0 31 0 50 1 19 1 42 0 50 0 13 0 126 0 173
0 9 0 34 0 55 0 20 0 48 1 62 4 110 4 220 -1 220 -3 0 -3 19 0 43 4 23 4 55 1
71 -3 16 -3 66 0 112 3 46 3 84 0 84 -3 0 -3 29 0 65 3 36 2 65 -1 65 -4 0 -5
8 -3 18 7 26 10 172 4 172 -3 0 -3 29 0 65 3 36 2 65 -3 65 -4 0 -6 4 -2 9 3
5 5 49 5 98 0 103 1 214 2 222 0 3 0 24 -1 47 l-1 41 -47 2 c-27 2 -52 3 -58
2 -97 -5 -135 -5 -135 -1 0 6 -110 7 -116 0z"/>
<path d="M5756 3522 c-2 -4 -1 -14 3 -21 5 -7 5 -27 1 -45 -4 -17 -4 -40 0
-51 4 -11 4 -33 0 -50 -4 -17 -4 -39 0 -50 4 -11 6 -23 3 -27 -2 -4 -4 -38 -3
-75 1 -38 1 -76 1 -85 0 -10 0 -35 0 -55 0 -21 0 -49 -1 -63 -5 -123 -4 -220
3 -220 5 0 5 -4 2 -10 -3 -5 -5 -33 -5 -62 1 -78 1 -82 1 -155 0 -38 0 -79 -1
-93 -4 -97 -4 -140 1 -140 3 0 3 -20 -1 -45 -4 -25 -3 -48 2 -51 4 -3 6 -10 2
-15 -3 -5 -5 -34 -4 -64 1 -52 1 -66 -1 -97 0 -7 0 -35 0 -63 0 -27 0 -57 0
-65 0 -8 0 -37 0 -65 0 -27 1 -58 0 -67 0 -10 0 -34 0 -53 0 -19 0 -41 0 -47
0 -7 1 -30 2 -51 l2 -37 56 0 c31 0 82 -1 114 -2 31 -2 57 0 57 3 0 3 20 3 45
-1 25 -4 48 -3 51 1 2 5 11 6 19 3 8 -3 43 4 79 16 76 25 148 89 186 165 l25
50 0 725 0 725 -24 49 c-32 63 -95 126 -156 155 -39 19 -68 24 -132 25 -46 1
-83 3 -83 6 0 3 -28 4 -62 2 -88 -4 -159 -2 -169 3 -4 3 -10 2 -13 -3z"/>
</g>
</svg>
